<?xml version="1.0" standalone="no"?>
<!DOCTYPE svg PUBLIC "-//W3C//DTD SVG 20010904//EN"
 "http://www.w3.org/TR/2001/REC-SVG-20010904/DTD/svg10.dtd">
<svg version="1.0" xmlns="http://www.w3.org/2000/svg"
 width="1280.000000pt" height="1280.000000pt" viewBox="0 0 1280.000000 1280.000000"
 preserveAspectRatio="xMidYMid meet">
<metadata>
Created by potrace 1.15, written by Peter Selinger 2001-2017
</metadata>
<g transform="translate(0.000000,1280.000000) scale(0.100000,-0.100000)"
fill="#e5e9eb" stroke="none">
<path d="M6100 12794 c-25 -2 -112 -8 -195 -14 -934 -68 -1870 -357 -2695
-833 -785 -452 -1484 -1087 -2014 -1827 -1229 -1714 -1531 -3918 -811 -5904
641 -1769 2060 -3187 3830 -3831 523 -190 1041 -305 1630 -362 253 -24 857
-24 1110 0 689 67 1298 217 1910 472 785 327 1518 827 2117 1444 1409 1450
2048 3446 1742 5441 -341 2220 -1855 4124 -3947 4961 -588 236 -1163 373
-1817 435 -144 14 -758 27 -860 18z m650 -1024 c580 -40 1135 -166 1665 -379
195 -79 569 -266 753 -378 403 -244 750 -519 1082 -859 786 -805 1298 -1829
1469 -2939 46 -294 55 -434 55 -815 0 -381 -9 -521 -55 -815 -134 -873 -486
-1710 -1015 -2410 -298 -397 -687 -785 -1081 -1081 -706 -530 -1557 -887
-2418 -1014 -326 -48 -417 -54 -805 -54 -388 0 -479 6 -805 54 -768 113 -1531
410 -2190 852 -293 196 -535 397 -806 667 -432 433 -743 863 -1013 1401 -295
591 -464 1172 -543 1870 -13 120 -17 239 -17 530 0 391 8 510 55 815 241 1576
1174 2964 2551 3798 184 112 558 299 753 378 520 209 1091 340 1645 378 169
12 554 12 720 1z"/>
<path d="M5705 10435 c-232 -51 -404 -199 -483 -417 l-27 -73 -5 -1095 -5
-1095 -1090 -5 -1090 -5 -78 -28 c-215 -76 -377 -257 -422 -472 -22 -104 -22
-1580 0 -1684 48 -231 223 -416 461 -487 55 -17 137 -18 1141 -21 l1083 -4 2
-1097 3 -1097 26 -67 c75 -194 203 -322 397 -397 l67 -26 809 -3 c904 -3 862
-6 1014 69 154 75 278 230 329 409 17 61 18 127 18 1135 l0 1070 1075 5 c1007
5 1079 7 1140 24 231 66 403 239 461 464 18 71 19 117 19 862 0 750 -1 790
-20 864 -56 219 -217 388 -440 462 -52 18 -120 19 -1142 24 l-1087 5 -4 1075
c-2 985 -4 1080 -20 1135 -70 243 -265 426 -500 470 -109 21 -1539 21 -1632 0z"/>
</g>
</svg>
